# xmcd
#
# Track frame offsets:
#	150
#	11155
#	23695
#	35402
#	50792
#	64715
#	73750
#	80032
#	91125
#	101642
#	112067
#	122552
#	135032
#
# Disc length: 1936 seconds
#
# Revision: 2
# Processed by: cddbd v1.5.2PL0 Copyright (c) Steve Scherf et al.
# Submitted via: EasyCDDAExtractor 9.0.0.1
#
DISCID=ab078e0d
DTITLE=Eric Clapton - Mister Slowhand II
DYEAR=1991
DGENRE=Blues
TTITLE0=Snake drive
TTITLE1=Freight leader
TTITLE2=Got ti hurry
TTITLE3=Train kept a' rollin
TTITLE4=Draggin' my tail
TTITLE5=I ain't got you
TTITLE6=Choker
TTITLE7=For your love
TTITLE8=West coast idea
TTITLE9=A certain girl
TTITLE10=I wish you would
TTITLE11=Good morning little schollgirl
TTITLE12=Putty in your hands
EXTD=
EXTT0=
EXTT1=
EXTT2=
EXTT3=
EXTT4=
EXTT5=
EXTT6=
EXTT7=
EXTT8=
EXTT9=
EXTT10=
EXTT11=
EXTT12=
PLAYORDER=
